<svg id="Layer_1" data-name="Layer 1" xmlns="http://www.w3.org/2000/svg" width="545.59" height="200.45" viewBox="0 0 545.59 200.45"><defs><style>.cls-1{fill:#d6917f;}.cls-2{fill:#80892f;}.cls-3{fill:#c16452;}.cls-4{fill:#dfe8ef;}.cls-5{fill:#b59288;}.cls-6{fill:#4e874b;}.cls-7{fill:#242838;}.cls-8{fill:none;}.cls-9{fill:#a2a5a2;}.cls-10{fill:#fff;opacity:0.54;isolation:isolate;}</style></defs><g id="Layer_2" data-name="Layer 2"><path class="cls-1" d="M565.5,270.66c-61.62-4.17-120.82-23.35-182.65-21.28-2.11.08-4.4.22-6,1.2a8.26,8.26,0,0,0-2.43,2.81c-4.63,6.88-15.58,11.47-26.48,11-1.06,1.55,1.85,3,4.31,3.23s5.42.14,6.77,1.57c1.92,2-1.41,4.47-4.44,5.67-32.5,12.9-72.34,10.54-109.69,12-32.76,1.26-65.26,5.72-98.08,5.52-19.78-.12-39.46-1.95-59.06-3.79-7.3-.67-15.91-2-18.62-6.8a9.29,9.29,0,0,1-.72-6c2.81-22.21,24.94-42.71,54.81-50.74,21.6-5.83,45.54-5.37,68.61-4.07,34.06,1.89,67.9,5.4,101.73,8.71,36.49,3.57,73,6.94,109.83,8.36,24.74,1,49.69,1,74.17-1.6,17.49-1.87,34.7-5.1,52.35-5.92s36.32,1.08,50.5,8.45a4.18,4.18,0,0,1,2,1.64c.41,1-.36,2-1.26,2.75-6.14,5.27-18,5.11-27,2.53s-16.83-7-26.1-9.11c-7.88-1.77-16.31-1.77-24.58-1.73l-49.17.18a22.65,22.65,0,0,0-5.43.45c-2.45.62-4.31,2-6.26,3.2-7.08,4.32-16.69,6.6-26.1,6.14-4.25-.2-10.43.18-10.21,3.15" transform="translate(-68.24 -91.95)"/><path class="cls-2" d="M172.75,231.5c3.23-2,6.36-4.19,10.31-5.41,4.23-1.31,9-1.43,13.62-1.33,29.37.62,58.24,9,87.37,6.3,2.73-.26,5.63-.58,8.16.18,2,.62,3.55,2.29,3.17,3.71a1.78,1.78,0,0,1-1.7,1,451.59,451.59,0,0,0-57.24,5.43c-2,.32-1.84,2.27.14,2.47q10,1,19.66,3c2,.4,1.59,2.43-.46,2.47-21.5.36,8,1.72-12.13,7,5.19-1.81-40.11,3.07-34.79,4.71,8.18,2.51,17.55.9,26.4.06A142.65,142.65,0,0,1,287.9,266c1.5.44,1.48,1.92,0,2.34-10.31,2.89-21.49,4-32.46,5.42-34.76,4.37-68.85,11.23-103.83,14.65-20.67,2-43.76,2.4-60.11-6.65-7.9-4.37-9-16-5.19-22.34,3.41-5.72,10.83-6.66,18.87-7.69C130.56,248.45,152.87,243.7,172.75,231.5Z" transform="translate(-68.24 -91.95)"/><path class="cls-3" d="M425,238c.9-1-2.77-1.06-2.57.14s2.29,1.67,4,1.87c20.94,2.37,42.37,1.22,63.49,2.59a258.39,258.39,0,0,1,69.43,14.22c9.51,3.39,18.62,7.3,27.85,11.07-53.24,10.17-111,2.33-164.18,12.78-6.06,1.19-12.08,2.63-18.32,3.21a138.6,138.6,0,0,1-18.23.06q-27.75-1.17-55.53-2.31c-3.21-6-6.46-12.41-4.19-18.59,3.69-10.05,19.76-14.85,33.94-18q25.55-5.75,51.44-10.67c12.74-2.41,25.76-4.71,38.94-4.23,18.31.66,36.06,6.92,47.66,16.79" transform="translate(-68.24 -91.95)"/><path class="cls-4" d="M421.65,123c-.89.2-1.65-.88-1.51-1.78a4.41,4.41,0,0,1,1.49-2.25c2.18-2.11,4.51-4.31,7.46-5s6.64.67,7.32,3.62c.48,2.08-.6,4.17-1.66,6a10.54,10.54,0,0,1,7.5-3.45c2.83.06,5.68,1.95,6.3,4.7s-1.69,5.94-4.5,5.74a5.51,5.51,0,0,1,7,3.39,6.55,6.55,0,0,1-3.06,7.42,8.14,8.14,0,0,1-8.25-.38,8.76,8.76,0,0,1-17,1.88,3.29,3.29,0,0,0-.84-1.56,2.45,2.45,0,0,0-1.65-.32c-2.37.16-4.67,1-7,1.32s-5,.18-6.8-1.36-2.35-4.72-.52-6.24c-2.33-1-4.72-2.19-6.32-4.19s-2.15-5-.6-7.09c2-2.68,6.06-2.24,9.33-1.54a3,3,0,0,0,2.22-.1c.7-.44.9-1.35,1.25-2.09a4.38,4.38,0,0,1,8.28,2.41" transform="translate(-68.24 -91.95)"/><path class="cls-5" d="M470.33,154.93c-11.47.86-22.79-2.53-33.8-5.88a21.67,21.67,0,0,1-5.34-2.16,19.41,19.41,0,0,1-5.13-5.32c-6.68-9.33-11.5-20.24-20.26-27.67s-23.59-9.72-30.86-.84c-5.67-5.45-15.26-3.63-21.74.84s-11.32,11-17.9,15.27c-11.17,7.28-25.79,7.2-37.41,13.72-9.51,5.32-16.19,14.61-25.24,20.65-10.91,7.28-24.41,9.32-37.45,10.73s-26.46,2.43-38.28,8.08-21.9,17.22-21.46,30.33c.14,4,1.4,8.23,4.47,10.84,2.45,2.08,5.74,2.87,8.87,3.57Q235,237.44,282,243.26c17.78,2.2,35.61,3.91,53.46,5.61,16.09,1.53,32.2,3.07,48.37,3.48s32.5-.29,48.75-1l62.53-2.77c2.21-.1,4.69-.32,6.12-2a8.25,8.25,0,0,0,1.5-4.42c3.49-26,8-52,10.53-78.11C516,135.37,487.57,154.93,470.33,154.93Z" transform="translate(-68.24 -91.95)"/><path class="cls-2" d="M579,271.92q-72.75-11.34-146.4-19.53A122.39,122.39,0,0,0,415,251.32c-11.2.42-21.65,3.85-32.18,6.52,4.65,9.35,19.2,14.53,33.16,16.33s28.48,1.17,42.25,3.55c19.54,3.37,36.77,12.66,56.85,13.64,25.52,1.23,52-11.17,75.37-4q11.7-20.22,23.43-40.44c-32.64.84-65.72,1.66-97.54-3.45-18.39-3-39.64-7.44-54.56.6a604.25,604.25,0,0,0,94.42,17.45c9.25,1,19.76,2.23,24.8,7.71q-11.7,1.35-23.47,2.22" transform="translate(-68.24 -91.95)"/><path class="cls-6" d="M492.76,200c-8.1-7-21.48-6.56-29.15.84-1.6,1.54-3,3.57-2.79,5.78s2.33,4.11,4.56,4.73a17.61,17.61,0,0,0,6.94.08l10.17-1.24c3.77-.46,8.61-2.07,8.47-5.86-.06-1.81-1.07-4.31.6-5" transform="translate(-68.24 -91.95)"/><path class="cls-6" d="M502,184.34A23.1,23.1,0,0,0,491.88,182c-2.05,0-4.55.6-5.16,2.57-.78,2.51,2.15,4.53,4.62,5.38a48.72,48.72,0,0,0,18.55,2.54,38.11,38.11,0,0,0-10.45-10.61" transform="translate(-68.24 -91.95)"/><path class="cls-7" d="M477.36,159.8c-1.55-2-4.9-1.78-6.83-.12s-2.8,4.22-3.47,6.7a94.08,94.08,0,0,0-2.28,11,3.6,3.6,0,0,0,.18,2.3c.56,1,1.86,1.25,3,1.37,3.43.36,7,.44,10.21-.88A12.22,12.22,0,0,0,470.51,157" transform="translate(-68.24 -91.95)"/><path class="cls-7" d="M421.85,195.57c-.34-1.66-2.51-2-4.2-2q-11.4,0-22.79.08c-2.6,0-6.17,1.14-5.67,3.67.34,1.7,2.4,2.35,4.11,2.61a63.31,63.31,0,0,0,30.13-2.79c2-1,1.29-4.32-.7-5.3s-4.37-.36-6.48.28" transform="translate(-68.24 -91.95)"/><path class="cls-7" d="M356.59,198.94a23,23,0,0,0-3.53,10.31,62,62,0,0,0,24.55-1.7c.74,2-.92,4.17-2.91,4.93s-4.17.51-6.3.53a25.19,25.19,0,0,0-12.63,3.57c-1,.6-2,1.48-2,2.64.1,1.51,2,2.11,3.51,2.23a28.57,28.57,0,0,0,16.39-3.81l.36-.2a9.94,9.94,0,0,0,4.51-7.84c.33-9,17.1-15.27,9.11-22.47C379.36,179.66,361.06,192,356.59,198.94Z" transform="translate(-68.24 -91.95)"/><path class="cls-7" d="M400,114.59c-3.91-1.69-8.79-2.93-12.12-.3s-3.29,7.82-4.13,12.13c-1.78,9.11-9,16-15.11,23s-11.77,16-9.46,25c6.62-2.19,11.61-8,18.23-10.13,4.56-1.49,9.49-1.17,14.28-1,11.82.52,23.8.54,35.63,0,10.13-.45,15.55-1.19,7.12-10-6.11-6.39-14.78-10.13-20.88-17.07C410,132.14,403.67,116.17,400,114.59Z" transform="translate(-68.24 -91.95)"/><path class="cls-7" d="M195.3,184.16c-2.47,2.08-4,5.64-2.79,8.64a790.85,790.85,0,0,0,90.29-12.59c12.42-2.47,28.29-5.86,35.87-17.06a185.57,185.57,0,0,0-52.74,2.29c-11.37,2.09-22.69,4.6-33.92,7.36C221.34,175.39,203.88,176.94,195.3,184.16Z" transform="translate(-68.24 -91.95)"/><path class="cls-7" d="M224.75,205c-3.17,1.23-6.7,0-10-.78s-7.43-.76-9.39,2-.5,6.78,2.09,8.94,6,3,9.14,4.14a47.25,47.25,0,0,1,14.31,8.22,19.66,19.66,0,0,0,3.91,2.85c3.87,1.84,8.5.28,12.2-1.85s7.26-4.87,11.49-5.55c.46-9.49-8.75-18.24-18.2-17.28a43.86,43.86,0,0,1,8,13.46c-2.63,1.17-5.8,0-8-1.9s-3.75-4.41-5.75-6.5a21.76,21.76,0,0,0-22.25-5.56" transform="translate(-68.24 -91.95)"/><path class="cls-7" d="M207.64,228A74.25,74.25,0,0,0,205,258.3a4.38,4.38,0,0,0,.72,2.25c.92,1.2,2.69,1.18,4.19,1a32.39,32.39,0,0,0,19.42-10.63,6.31,6.31,0,0,0,1.83-3.51,8.09,8.09,0,0,0-1-3.65,25,25,0,0,1-1.74-12.14c.38-3.45,1.24-7.54-1.31-9.87-1.48-1.36-3.67-1.56-5.69-1.44a22.81,22.81,0,0,0-16.95,9.51" transform="translate(-68.24 -91.95)"/><path class="cls-7" d="M344.25,196.46c-4.11-.59-8.18,1.48-11.25,4.27s-5.38,6.28-8.15,9.37c-1.52,1.72-4.31,3.31-5.82,1.62-1.14-1.28-.42-3.31-.78-5a8.66,8.66,0,0,0-2.23-3.49,31.89,31.89,0,0,1-7.48-17,30,30,0,0,0-12.13,21.89,11.43,11.43,0,0,1-.65-11,87.9,87.9,0,0,0-22.85,5.92,8.5,8.5,0,0,0-3.29,2,10.4,10.4,0,0,0-1.78,4.25,33.8,33.8,0,0,1-5.32,11c9.35,2.33,18.78-4.11,28.41-3.79,3.29.12,6.5,1,9.73,1.66,11.73,2.35,23.81,1.39,35.73.44a8.77,8.77,0,0,0,3.67-.84C343.31,216,344.11,200,344.25,196.46Z" transform="translate(-68.24 -91.95)"/><path class="cls-7" d="M494.45,174.49a25.42,25.42,0,0,1,16.17.3,8,8,0,0,1,3.85,2.47c2.14,2.85.26,7.3-2.93,8.88s-7,1-10.39-.2-6.56-2.86-10.09-3.43c-5.2-.86-10.46.85-15.43,2.61,9.33-1.3,17.13-11.23,26.24-8.81" transform="translate(-68.24 -91.95)"/><path class="cls-7" d="M404.59,208.71a100.15,100.15,0,0,1,26.66,3.83c0,.69,0,1.37,0,2.07a73.34,73.34,0,0,1-21.72-2.43" transform="translate(-68.24 -91.95)"/><path class="cls-7" d="M429.45,204.18a35.34,35.34,0,0,1,20.84,4c1,1.69-1.88,3-3.87,2.83A63.86,63.86,0,0,1,426.86,206" transform="translate(-68.24 -91.95)"/><path class="cls-7" d="M377.83,230.12c10.11-.48,20.46-.94,30.13,2a89.68,89.68,0,0,1-29,1.27,6.39,6.39,0,0,1-1.11-3.37" transform="translate(-68.24 -91.95)"/><path class="cls-7" d="M309.3,229.74a21.48,21.48,0,0,1,.83,8.62,43.45,43.45,0,0,1-33.65.18,23.41,23.41,0,0,1-1.14-7c2-1.34,4.62-.78,6.9-.06s4.78,1.51,7,.54,2.85-4.75.59-5.55a72.66,72.66,0,0,0-28.39,2.62,53,53,0,0,1,20-3.77C285.57,225.24,308.06,225.8,309.3,229.74Z" transform="translate(-68.24 -91.95)"/><path class="cls-7" d="M329.49,176.62a6.41,6.41,0,0,0-3,1c-1.29,1-1.71,2.65-2.25,4.19-2.67,7.58-10.27,14.34-8.06,22.07,2.86-.14,4.91-2.65,6.76-4.82a55.45,55.45,0,0,1,26.92-17.27c4.55-1.3-4.2-5.44-4-5.36C342,174.45,333.54,176.09,329.49,176.62Z" transform="translate(-68.24 -91.95)"/><path class="cls-7" d="M400.48,178.62a77.26,77.26,0,0,1,24.13-3.25,43.35,43.35,0,0,1-11.79,11c-5.9,3.75-13.76,5.95-19.78,2.4a3.81,3.81,0,0,1-2-2.36c-.28-1.45.87-2.77,2-3.68a20.81,20.81,0,0,1,13.08-4.45" transform="translate(-68.24 -91.95)"/><path class="cls-7" d="M453.34,176.05c-1.56-2.14-4.73-2.12-7.34-1.72a67.57,67.57,0,0,0-24,8.46c-1.31,2.41.82,5.54,3.45,6.28s5.45-.14,8.06-1l17.43-5.84a12,12,0,0,0-.76-8.42" transform="translate(-68.24 -91.95)"/><path class="cls-7" d="M482.47,244.86a124.3,124.3,0,0,1,29.61.66,3.25,3.25,0,0,1,2.53,1.21c1.12,2-2.21,3.39-4.48,3.27l-30.57-1.41a9.45,9.45,0,0,1,10.27-6" transform="translate(-68.24 -91.95)"/><path class="cls-7" d="M479,253.49c1.4,0,3.23.36,3.39,1.76a2.35,2.35,0,0,1-.66,1.67c-1.95,2.33-5.36,2.65-8.39,2.75-14.56.44-31.59,1.06-45.58-3C439.74,248.49,465.12,253.49,479,253.49Z" transform="translate(-68.24 -91.95)"/><path class="cls-7" d="M338.45,147.53c-2.56,2.36-6,3.45-9.22,4.67a112.51,112.51,0,0,0-24.62,12.74c8.91-1.87,15.65-8.91,22.63-14.78,5.58-4.7,11.94-9.69,18.82-12.2C343.49,141,341.4,144.82,338.45,147.53Z" transform="translate(-68.24 -91.95)"/><path class="cls-7" d="M489.35,198.46c1.79-.3,4.13-.18,4.82,1.49.62,1.48-.51,3.09-1.67,4.19a23.91,23.91,0,0,1-23.71,5.09c-.58-4.31,5-4.67,8.06-6.37A39,39,0,0,1,489.35,198.46Z" transform="translate(-68.24 -91.95)"/><path class="cls-7" d="M442.11,236c.44.72-.16,1.62-.78,2.22-2.33,2.27-16.31,10.17-19.26,5.32C419.58,239.51,439.9,236.46,442.11,236Z" transform="translate(-68.24 -91.95)"/><path class="cls-7" d="M242,195.87a6.14,6.14,0,0,1-4.91-3.41q27.1-7.67,54.82-12.92a45.57,45.57,0,0,1-3.83,11.4,13.59,13.59,0,0,1-2.85,4.19,17.45,17.45,0,0,1-5.48,2.89,119.3,119.3,0,0,0-36,22.17c-.91-9.71-13.53-17.17-10.38-26.4,1.87-5.52,8.41-7.65,14.07-9L261,181.45" transform="translate(-68.24 -91.95)"/><path class="cls-2" d="M502.83,203.9a5.31,5.31,0,0,1,1.27,1.48l1.54,2.25a14.46,14.46,0,0,1-5,1.54,14.91,14.91,0,0,1-4.76-.76c-2.45-.68-10.89-1.4-8.77-4.61,1.45-2.21,10.34-3.17,10.32.4C499,203.54,501.25,202.77,502.83,203.9Z" transform="translate(-68.24 -91.95)"/><path class="cls-8" d="M419.4,179.62a1.9,1.9,0,0,0,.38,1.37,1.92,1.92,0,0,0,1.24.4,39.64,39.64,0,0,0,13.53-1.52,2.18,2.18,0,0,0,1.3-.73,2.3,2.3,0,0,0,.2-1.56,98.85,98.85,0,0,0-1.95-10.07q-2.61-11.19-5.21-22.37c-.93-4-3.55-11.48-7.75-5.42-3.33,4.8-2.1,12.4-2,17.82Q419.25,168.61,419.4,179.62Z" transform="translate(-68.24 -91.95)"/><path class="cls-9" d="M473.48,246.25a1.91,1.91,0,0,0,.38,1.38,1.88,1.88,0,0,0,1.23.4,39.7,39.7,0,0,0,13.54-1.52,1.71,1.71,0,0,0,1.5-2.29,96.23,96.23,0,0,0-2-10.07q-2.6-11.19-5.2-22.37c-.94-4-3.55-11.49-7.76-5.43-3.33,4.81-2.09,12.41-2,17.83Z" transform="translate(-68.24 -91.95)"/><path class="cls-4" d="M256.16,100.76c-1-.82-.18-2.48.69-3.45,2.12-2.38,4.53-4.93,7.68-5.33s6.74,2.79,5.39,5.68c2-1.69,4.1-3.47,6.65-4s5.69.75,6.29,3.29c.71,3-2.26,5.58-4.95,7.17.72-1.81,3.81-1.39,4.61.4s-.12,3.91-1.46,5.35a10.27,10.27,0,0,1-12,2,17.93,17.93,0,0,0-4.85,2.09c-1.57.8-3.39,1.44-5.08.92s-2.95-2.63-2-4.13a13.75,13.75,0,0,1-6.06,5.53,4.87,4.87,0,0,1-2.29.58,6.14,6.14,0,0,1-3.21-1.52c-2.41-1.77-4.91-3.65-6.26-6.32s-1.26-6.34,1-8.24,6.74-.35,6.64,2.66A5.13,5.13,0,0,1,248,96.11c2.37-1.46,6.06,0,6.58,2.75a3,3,0,0,0,.62,1.78c.48.41,1.52-.16,1.12-.66" transform="translate(-68.24 -91.95)"/><path class="cls-10" d="M315.66,131.44a13.74,13.74,0,0,1-1.18,10.43c3.79-1.16,7-3.63,10.45-5.58s7.52-3.43,11.3-2.34,6.66,5.77,4.65,9.2a32.23,32.23,0,0,1,23.89-5.91c2.55.4,5.3,1.28,6.66,3.47,2.73,4.39-1.86,9.61-6,12.74A38.39,38.39,0,0,1,384.59,148a6.68,6.68,0,0,1,4,.86c3.14,2.17,1.18,7.28-1.81,9.65-4.47,3.53-10.27,4.75-15.85,5.86-2.77.56-7.08-.42-6.24-3.11a53.92,53.92,0,0,1-30.75,4.77c-4.65-.66-10-2.81-10.81-7.44.6,3.59-25,0-27.05.32-8.36,1.25-16.29,10.75-22.83.08C261.48,139.86,313.82,125.26,315.66,131.44Z" transform="translate(-68.24 -91.95)"/></g><path d="M445.58,162.39c-12.66-7-23.65-16.65-33.56-27.12-2.21-2.33-4.94-4.69-6.26-7.68-1.09-2.45-1.45-5.14-2.43-7.63a8.25,8.25,0,0,0-4.11-4.75,14.61,14.61,0,0,0-6.08-1c-5.3,0-11.66,1.24-15.95,4.55l.28.36c1.53-1.64,1.12-4-.18-5.6-1.6-2.06-4.11-2.48-6.56-2-3.45.68-6.7,2.77-9.81,4.35-3.39,1.73-6.74,3.49-10.07,5.34A133,133,0,0,0,331.77,134c-6.08,5-12,10-18.63,14.22-12.42,7.9-26.18,13-40.43,16.43-13.86,3.37-28,5.42-42,8.18-15.39,3-30.76,7-44.7,14.37-.26.14,0,.54.24.4,24.37-12.92,52.3-15.13,78.84-20.76,13.14-2.77,26.14-6.46,38.18-12.52a116.92,116.92,0,0,0,18.25-11.4c6-4.61,11.6-9.81,17.84-14.14a188.47,188.47,0,0,1,21.34-12.36c1.81-.94,3.63-1.88,5.46-2.79a15,15,0,0,1,6.34-1.94,5.33,5.33,0,0,1,4.71,2.47,3.65,3.65,0,0,1-.1,4.55c-.16.18.06.52.28.36,3.91-3,9.57-4.19,14.39-4.45a15.61,15.61,0,0,1,7.18.94c2.48,1.12,3.65,3.49,4.41,6a44,44,0,0,0,2.25,6.86c1.34,2.63,3.77,4.73,5.77,6.86a178.68,178.68,0,0,0,15.11,14.4,120,120,0,0,0,18.84,13.12c.24.16.46-.22.2-.38Z" transform="translate(-68.24 -91.95)"/><path d="M172.45,204.12c11.35-3.59,23.09-7.3,35.13-6.78A43.46,43.46,0,0,1,235,208.51a42.53,42.53,0,0,1,9.65,12.7c.14.26.52,0,.4-.24a44,44,0,0,0-20.14-19.8c-10.15-4.91-21.45-5.08-32.36-3a179.06,179.06,0,0,0-20.24,5.52c-.26.06-.14.5.14.42Z" transform="translate(-68.24 -91.95)"/><path d="M248.5,205.24q24.74-5,49.81-8.2l-.22-.22c0,4.75.06,9.51.1,14.26a.23.23,0,0,0,.46,0c0-4.75-.06-9.51-.1-14.26a.21.21,0,0,0-.22-.22q-19.47,2.46-38.78,6.05-5.6,1-11.15,2.17c-.32,0-.18.46.1.42Z" transform="translate(-68.24 -91.95)"/><path d="M301,205.26c.76-4.81,1.6-9.79,3.43-14.32a15.71,15.71,0,0,1,3.49-5.38c.54-.56,1.12-1.08,1.61-1.68,1.2-1.37,2-3,3.39-4.26,2.76-2.52,6.68-1.86,10.13-1.78l9.48.26,21.35.58a.23.23,0,0,0,0-.46l-19.7-.54-9.65-.26-5.3-.14a10.75,10.75,0,0,0-4.51.6c-3.07,1.3-4.43,4.67-6.7,6.92a17.21,17.21,0,0,0-3.51,4.79c-2.27,4.82-3.13,10.32-4,15.55,0,.28.4.42.46.12Z" transform="translate(-68.24 -91.95)"/><path d="M339.72,215.27a62.88,62.88,0,0,1,12.09-20.78,28.94,28.94,0,0,1,4.5-4.35,15.27,15.27,0,0,1,5.67-2.45,92.11,92.11,0,0,1,13.57-1.43q7.69-.54,15.42-.66a.23.23,0,0,0,0-.46c-4.89.08-9.75.26-14.64.6a126.83,126.83,0,0,0-13.62,1.33,15.88,15.88,0,0,0-5.8,2.1A22.09,22.09,0,0,0,352.5,193a61.76,61.76,0,0,0-7.31,9.66,65,65,0,0,0-5.93,12.46.24.24,0,0,0,.46.14Z" transform="translate(-68.24 -91.95)"/><path d="M370.77,219a32.75,32.75,0,0,1,13.14-13.58,36.71,36.71,0,0,1,9.27-4,40.5,40.5,0,0,1,11.31-.9,99.46,99.46,0,0,0,12.92,0c.28,0,.3-.48,0-.46-7.8.76-15.76-1-23.47.66a35,35,0,0,0-9.33,3.77,38.63,38.63,0,0,0-7.84,5.64,29.75,29.75,0,0,0-6.4,8.62c-.14.26.26.5.4.24Z" transform="translate(-68.24 -91.95)"/><path d="M475.19,159.26c-6.54-2.5-13.84-4.61-20.8-2.54a17.38,17.38,0,0,0-7.21,4.13,20.7,20.7,0,0,0-2.5,3.35c-.24.38-.31.34-.75.26s-.72-.16-1.08-.22c-.9-.18-1.77-.36-2.67-.5-5.9-1-12.62-1.35-17.73,2.36-1.31,1-2.41,2.13-3.63,3.17a11.5,11.5,0,0,1-4.9,2.53c-3.43.84-7,.58-10.53.92a62.71,62.71,0,0,0-23.13,7c-.26.13,0,.53.24.39a63.83,63.83,0,0,1,27.42-7.19c4.08-.16,8-.52,11.22-3.29a30.37,30.37,0,0,1,5.11-4.09,16.51,16.51,0,0,1,6.24-1.84c4.72-.49,9.49.42,14.11,1.42a.25.25,0,0,0,.26-.1c2.22-4.67,7-7.48,12-8.31,6.22-1.06,12.5.87,18.26,3.07.24.06.36-.38.08-.5Z" transform="translate(-68.24 -91.95)"/><path d="M450.81,174.09a26.73,26.73,0,0,0-30.33,6.68c-.2.22.12.54.32.32a26.29,26.29,0,0,1,29.79-6.6c.24.12.47-.28.22-.4Z" transform="translate(-68.24 -91.95)"/><path d="M443.07,190.48a12,12,0,0,1,6.92-6.36c3.71-1.29,7.56-.3,11.24.58,7.76,1.85,15.46,4.05,23,6.58.28.1.4-.34.12-.44-6.34-2.13-12.78-4-19.26-5.66-5.46-1.38-11.66-3.59-17-.72a12.35,12.35,0,0,0-5.42,5.78c-.12.26.28.5.4.24Z" transform="translate(-68.24 -91.95)"/><path d="M427.26,202.39a124.87,124.87,0,0,1,33,.32c.28,0,.42-.4.12-.44a125.78,125.78,0,0,0-33.12-.34c-.3,0-.3.5,0,.46Z" transform="translate(-68.24 -91.95)"/><path d="M474.25,160.65c1-1.61,2.94-.12,3.89.62a5.11,5.11,0,0,0,3.07,1.18c2.77,0,5.41-1.76,7.9-2.71a46.45,46.45,0,0,1,17.53-3.13,45.47,45.47,0,0,1,10.13,1.27c.27.06.39-.38.11-.44a47.55,47.55,0,0,0-18.14-.75,45.51,45.51,0,0,0-9.11,2.35c-1.38.52-2.73,1.11-4.07,1.71-1.6.72-3.49,1.54-5.26,1.12s-4.85-4.17-6.46-1.46a.24.24,0,0,0,.41.24Z" transform="translate(-68.24 -91.95)"/><path d="M394.72,167.67a.73.73,0,0,0,.79-1c-.36-1-1.81-.45-2.51-.31-3.63.75-7.22,1.61-10.79,2.55-7,1.87-14,4.13-20.87,6.58-3.41,1.21-6.8,2.47-10.17,3.75a92.09,92.09,0,0,0-9.15,3.63,19.39,19.39,0,0,0-6.64,5.8c-2.2,2.83-4.27,5.74-6.34,8.63q-7.1,9.93-13.58,20.24c-.16.24.24.48.4.24q5.17-8.19,10.7-16.15,2.76-3.95,5.57-7.82a64.27,64.27,0,0,1,5.8-7.44,20.52,20.52,0,0,1,7.7-4.56c3-1.16,6.06-2.29,9.11-3.43,6.1-2.27,12.24-4.45,18.46-6.4q5.21-1.62,10.47-3c1.81-.46,3.65-.92,5.48-1.34l2.65-.6c.44-.1.88-.2,1.34-.28l.58-.12a3.17,3.17,0,0,1,.46-.07c.4-.14.62.07.68.63-.3,0-.42.4-.14.46Z" transform="translate(-68.24 -91.95)"/><path d="M262.08,221c-4.95-2.53-7.08-8-10.25-12.26a17.82,17.82,0,0,0-5.84-5.19,24.84,24.84,0,0,0-7.92-2.51,66.43,66.43,0,0,0-10-.64v.46c.86-.08,1.74-.16,2.61-.22.28,0,.3-.48,0-.46-.85.08-1.73.16-2.61.22-.28,0-.3.46,0,.46,5.8.06,12,.2,17.27,2.89,5.12,2.61,7.46,7.6,10.61,12.09a16.57,16.57,0,0,0,5.88,5.56.23.23,0,0,0,.22-.4Z" transform="translate(-68.24 -91.95)"/><path d="M400.24,228.65h-2.85a.23.23,0,0,0,0,.46h2.85a.23.23,0,0,0,0-.46Z" transform="translate(-68.24 -91.95)"/><path d="M324.09,225.4a13.09,13.09,0,0,1,7.4-6.4,97.56,97.56,0,0,1,10.09-3,175,175,0,0,1,21-4.16q6.23-.84,12.51-1.26c.29,0,.29-.48,0-.46A179.77,179.77,0,0,0,353,212.91q-5.62,1.08-11.2,2.54a100.25,100.25,0,0,0-10.61,3.17,13.46,13.46,0,0,0-7.5,6.54c-.14.28.24.5.38.24Z" transform="translate(-68.24 -91.95)"/><path d="M337.11,226.19c3.29-4.56,9.89-4.36,14.92-4.58l20.81-.88,11.71-.5a.23.23,0,0,0,0-.46l-22,.94c-3.63.16-7.27.32-10.9.46a47,47,0,0,0-8.2.78,10.93,10.93,0,0,0-6.72,4c-.18.24.22.46.4.22Z" transform="translate(-68.24 -91.95)"/><path d="M311.37,237.72a36.45,36.45,0,0,1,13.92-4.19c5-.46,9.89.36,14.77,1.42,4.67,1,9.35,2.15,14.16,2.09,5.14-.08,10.19-1.45,15.29-2a28.17,28.17,0,0,1,5.8-.18,39.89,39.89,0,0,1,6.76,1.45.23.23,0,0,0,.12-.44,31.42,31.42,0,0,0-11-1.45c-5.13.42-10.11,1.75-15.24,2.11-10.05.72-19.52-4.12-29.61-3.51a36.82,36.82,0,0,0-15.21,4.35c-.24.12,0,.52.26.38Z" transform="translate(-68.24 -91.95)"/><path d="M372.42,241.75a54.59,54.59,0,0,1,7.84-4.61,26.26,26.26,0,0,1,9.33-2.89c5.74-.4,11.33,2.63,17,1.1a.23.23,0,0,0-.12-.44c-6,1.59-11.94-1.84-18-1a28.69,28.69,0,0,0-8.13,2.69,54.26,54.26,0,0,0-8.18,4.75c-.21.18,0,.56.24.4Z" transform="translate(-68.24 -91.95)"/><path d="M365.17,233.25c2.85-4.94,9.07-6.1,14.33-5.9,6.7.26,13.44,2.59,20,.4.28-.1.16-.54-.12-.44-7,2.35-14.18-.5-21.31-.44-5.05,0-10.67,1.48-13.34,6.14a.23.23,0,0,0,.4.24Z" transform="translate(-68.24 -91.95)"/><path d="M305.83,229.16c-7-.25-14-.71-20.94-.69-5.9,0-12,.75-17.09,4a17,17,0,0,0-5.94,6.29c-.14.25.26.47.4.24,2.55-4.79,7.5-7.72,12.64-9,6.36-1.59,13.08-1,19.56-.78l11.37.42a.23.23,0,0,0,0-.46Z" transform="translate(-68.24 -91.95)"/><path d="M295.38,226.63a2.39,2.39,0,0,0,0-3,4.08,4.08,0,0,0-3.77-1.43,59.82,59.82,0,0,0-6.22.93l-6.84,1.1q-6.82,1.11-13.66,2.17c-2.13.34-4.29.66-6.42,1a19.23,19.23,0,0,0-5.36,1.58c-3,1.49-5.43,4.94-4.05,8.33.1.26.56.16.44-.12-1.24-3.07.89-6.22,3.55-7.66,3-1.63,6.7-1.87,10-2.41l22.45-3.59a50.82,50.82,0,0,1,6.28-.92,3.74,3.74,0,0,1,2.93.88,2,2,0,0,1,.32,2.75c-.22.22.12.56.3.32Z" transform="translate(-68.24 -91.95)"/><path d="M313.3,221.39c-8.65-7.62-21.05-4.15-31.18-2.61a41.7,41.7,0,0,1-11.59.38c-.28,0-.28.41,0,.45,8,1.06,15.74-1.47,23.61-2.29,6.5-.68,13.72-.14,18.84,4.39.22.2.54-.12.32-.32Z" transform="translate(-68.24 -91.95)"/><path d="M184.39,214.13l26.15,3.19a24.17,24.17,0,0,1,5.32,1,7.37,7.37,0,0,1,4.19,3.85c.59,1.19,1.07,2.43,1.61,3.65,1.54,3.56,3.07,7.13,4.63,10.7a15.68,15.68,0,0,1,1.45,5,12.47,12.47,0,0,1-2.39,8.35,12.22,12.22,0,0,1-3.79,3.37A18,18,0,0,1,216.1,255c-4.83,1-9.69,1.85-14.58,2.55-.28,0-.16.48.12.44q6.95-1,13.82-2.42c3.27-.65,6.26-1.41,8.75-3.74a13,13,0,0,0,2.94-14.56q-2.22-5.15-4.45-10.29c-.52-1.17-1-2.37-1.54-3.55a11.77,11.77,0,0,0-2.39-4,9.36,9.36,0,0,0-4.35-2.07,65.5,65.5,0,0,0-6.58-.92l-7.81-.95-15.62-1.92c-.29,0-.29.46,0,.5Z" transform="translate(-68.24 -91.95)"/><path d="M214.32,225.1c-6.2.3-9.91,5.62-12.26,10.78-2.75,6-4.13,12.49-6.52,18.63a25.08,25.08,0,0,1-1.81,3.81c-.14.2-.64.91-.14,1.05s.79-.87,1-1.15-.22-.46-.39-.24-.54.68-.5.83c0,.34.4-.21.48-.33.27-.46.53-.94.77-1.42.52-1.06,1-2.17,1.38-3.27,1-2.67,1.79-5.4,2.65-8.12,1.78-5.58,3.63-11.78,7.64-16.21a11,11,0,0,1,7.73-3.88c.28,0,.28-.5,0-.48Z" transform="translate(-68.24 -91.95)"/><path d="M194.19,238.82l-2.4,6.6c-.38,1-.76,2.07-1.13,3.13-.2.55-.4,1.09-.6,1.65,0,.1-.78,2.39-1.26,1.68.16.24.56,0,.4-.24-.38-.56-1,0-.88.55.2,1.12,1.44,0,1.66-.49.9-1.9,1.45-4,2.17-6,.82-2.25,1.64-4.52,2.45-6.79.12-.28-.32-.4-.41-.12Z" transform="translate(-68.24 -91.95)"/><path d="M388.22,256.46c3.7-.5,7.43-1.17,11.16-1.51a3,3,0,0,1,1.2.08c.44.12,1.17.61.48.95a4.25,4.25,0,0,1-1.34.08l-1.34.08c-1.83.12-3.68.22-5.54.32-.3,0-.3.48,0,.46l7.64-.46c.58,0,1.41.18,1.49-.6a1.08,1.08,0,0,0-.59-1c-1.48-1-3.75-.18-5.35,0l-8,1.07c-.24.08-.12.52.16.48Z" transform="translate(-68.24 -91.95)"/><path d="M452.54,217.48a35,35,0,0,0,6.8,19.92c.18.24.58,0,.4-.24a34.67,34.67,0,0,1-6.74-19.7.23.23,0,0,0-.46,0Z" transform="translate(-68.24 -91.95)"/><path d="M451.36,240a.89.89,0,0,0,1-.42.61.61,0,0,0-.2-.91c-.26-.12-.5.28-.22.39s.1.2,0,.32a.39.39,0,0,1-.44.18c-.28-.1-.4.34-.12.44Z" transform="translate(-68.24 -91.95)"/><path d="M449.27,218a99.3,99.3,0,0,0,1.14,20.38c0,.28.48.16.44-.12A96.76,96.76,0,0,1,449.73,218a.23.23,0,0,0-.46,0Z" transform="translate(-68.24 -91.95)"/><path d="M334.08,107.26c2.43-1.52,6,1,5.34,3.82a.23.23,0,0,0,.44.12,2.71,2.71,0,0,1,2-1.81c.28-.06.16-.5-.12-.44a3.14,3.14,0,0,0-2.34,2.13l.44.12c.76-3.17-3.23-6.06-6-4.34-.26.16,0,.55.22.4Z" transform="translate(-68.24 -91.95)"/><path d="M365.41,105.9a15.88,15.88,0,0,1,5.22-.72c.48,0,1,0,1.43.1a4,4,0,0,0,1.06.16c.4-.08.78-.72,1.06-1a16.54,16.54,0,0,1,8.33-4.24c.28-.06.16-.5-.12-.44a16.9,16.9,0,0,0-7.93,3.83c-.64.55-1.08,1.33-2,1.27-.73,0-1.45-.16-2.19-.16a16.78,16.78,0,0,0-5,.74.23.23,0,1,0,.1.44Z" transform="translate(-68.24 -91.95)"/><path d="M399.74,115.69a1.66,1.66,0,0,1,2.33-.82.24.24,0,0,0,.34-.14,3.9,3.9,0,0,1,4.85-2.35c.28.1.4-.36.12-.44a4.38,4.38,0,0,0-5.41,2.65l.34-.14a2.13,2.13,0,0,0-3,1.08c-.12.3.32.42.42.16Z" transform="translate(-68.24 -91.95)"/><path d="M385.4,195.19c5.43-5.15,13.52-3.83,20.2-2.85a47.17,47.17,0,0,0,10.81.46c3.37-.26,7-.6,9.93,1.39.24.16.48-.24.22-.4a11.94,11.94,0,0,0-7.24-1.63,82.35,82.35,0,0,1-8.89.28c-6-.42-11.89-2.22-17.87-1.16a14.48,14.48,0,0,0-7.49,3.57.24.24,0,0,0,.33.34Z" transform="translate(-68.24 -91.95)"/><path d="M471.62,206c-.52,6.58.68,13.1.88,19.66.2,6.26-1.42,12.72.28,18.86a.23.23,0,0,0,.44-.12c-1.72-6.22,0-12.78-.28-19.12s-1.38-12.82-.88-19.28c0-.28-.42-.28-.44,0Z" transform="translate(-68.24 -91.95)"/><path d="M472.88,244.86c1,.93,2.17,2,3.63,2.11a2.65,2.65,0,0,0,2.69-1.47l-.42-.06a2.74,2.74,0,0,0,4.33,1.33c.52-.44.91-.86,1.65-.82a9.21,9.21,0,0,1,1.6.36,2.46,2.46,0,0,0,1.47,0,1.28,1.28,0,0,0,.66-1.89c0,.12-.1.22-.14.34a3.27,3.27,0,0,0,2.41-2.26.22.22,0,0,0-.16-.27c-.35-.14-.53-.14-.69-.48a4.17,4.17,0,0,1,0-1.32v-2.25c0-1.58-.06-3.13-.18-4.71a35.42,35.42,0,0,0-1.68-8.65,41.66,41.66,0,0,1-2.37-9c-.32-3-.34-6-.9-9-.06-.28-.5-.16-.44.12.58,3,.58,6.16.92,9.23a36.66,36.66,0,0,0,2.11,8.06c2,5.8,2.14,11.8,2.1,17.89a.24.24,0,0,0,.16.21l.88.32-.16-.28a2.88,2.88,0,0,1-2.12,2,.24.24,0,0,0-.14.34c.74,1-.95,1.39-1.61,1.27-.44-.08-.88-.26-1.32-.32a2.24,2.24,0,0,0-1.75.36c-.76.56-1.22,1.16-2.24,1a2.31,2.31,0,0,1-1.95-1.59c0-.18-.34-.24-.42-.06a2.29,2.29,0,0,1-2.75,1.15,6.72,6.72,0,0,1-2.85-1.91c-.22-.24-.54.08-.32.28Z" transform="translate(-68.24 -91.95)"/><path d="M478.1,206c0-.06,0-.12,0-.18,0-.28-.48-.3-.46,0q.63,13.31.1,26.65c0,.3.44.3.46,0q.54-13.34-.1-26.65h-.46c0,.06,0,.12,0,.18,0,.27.5.27.46,0Z" transform="translate(-68.24 -91.95)"/><path d="M480.1,208c-.6,6.34,1.63,12.44,2.27,18.68a53.84,53.84,0,0,1,.1,9.67c-.14,1.66-.38,3.29-.64,4.93a13.45,13.45,0,0,0-.2,4.29c0,.27.48.15.44-.12a18.83,18.83,0,0,1,.42-5.39c.22-1.41.38-2.85.48-4.28a53.61,53.61,0,0,0-.18-9.48c-.68-6.1-2.81-12.1-2.23-18.3,0-.28-.44-.28-.46,0Z" transform="translate(-68.24 -91.95)"/><path d="M485.12,207.17c-.46-.64,0-1.71.4-2.27a6.37,6.37,0,0,1,1.16-1.16c.4-.32,1.25-.7,1.29-1.27a.24.24,0,0,0-.16-.22.31.31,0,0,0-.34.08.24.24,0,0,0,0,.28s0,0,0,0c.14.25.54,0,.4-.24s-2.53,2-2.73,2.23c-.5.7-1,2-.4,2.73.16.28.56.06.4-.2Z" transform="translate(-68.24 -91.95)"/><path d="M487.2,201.71a13.29,13.29,0,0,0-4.61,5c-.14.26.26.48.4.24a12.85,12.85,0,0,1,4.44-4.82c.24-.16,0-.56-.23-.4Z" transform="translate(-68.24 -91.95)"/><path d="M484,202.09a8.37,8.37,0,0,0-4,5.14.23.23,0,0,0,.44.12,7.89,7.89,0,0,1,3.82-4.86.23.23,0,1,0-.22-.4Z" transform="translate(-68.24 -91.95)"/><path d="M481.39,202.29a20.67,20.67,0,0,0-2.41,4.12c-.12.26.28.5.4.24a22.42,22.42,0,0,1,2.41-4.12c.18-.26-.22-.48-.4-.24Z" transform="translate(-68.24 -91.95)"/><path d="M476.65,205.62a10.89,10.89,0,0,0-4.69-3.91c-.2-.08-.44.1-.32.32a8.62,8.62,0,0,0,1.4,1.67,5.7,5.7,0,0,1,1,1.14c.06.12.27.48.23.64-.27.22-.57.44-.85.65a2,2,0,0,1-.84-.17c-1.64-.6-2.87-2.48-4.81-1.88a.23.23,0,0,0-.06.42,13.6,13.6,0,0,1,3.45,2.55c.2.22.52-.12.32-.32a14.06,14.06,0,0,0-3.55-2.63l-.06.42c1.66-.52,2.82,1.08,4.17,1.71.68.32,1.88.64,2.47,0,1.12-1.25-2-3.5-2.49-4.4l-.32.32a10.38,10.38,0,0,1,4.53,3.73c.22.26.62,0,.46-.22Z" transform="translate(-68.24 -91.95)"/><path d="M484.66,208.29a4.6,4.6,0,0,0,2.46-1.74c.89-1.05,2.27-2.71,3.82-1.83a.22.22,0,0,0,.28,0,3.14,3.14,0,0,0-1.27-5.5c-1-.2-1.88,0-2.68-.7a4.33,4.33,0,0,0-1.27-1.1,1.18,1.18,0,0,0-1.72.88c.12-.06.22-.14.34-.2-2-1.1-4.32-1-6.52-1.08a22.74,22.74,0,0,0-7.35.78c-3.2,1-8.16,4.15-6.86,8.2a.19.19,0,0,0,.16.15l1.89.4a4.28,4.28,0,0,1,1.14.24c.22.18.14.16.18.46a3.66,3.66,0,0,0,.45,1.86c1.24,1.61,2.52-1,3.73-.52.28.1.4-.34.12-.44-.76-.3-1.29.24-1.91.64-1.68,1.11-2.06-.84-1.92-2.12a.22.22,0,0,0-.16-.22l-1.71-.35c-.4-.08-1.38-.12-1.64-.48s-.05-1.48.06-1.92a5.46,5.46,0,0,1,.72-1.45,11,11,0,0,1,5.53-3.87,20,20,0,0,1,6.8-.88c2.31,0,4.94-.14,7,1a.23.23,0,0,0,.34-.2c0-1,1.36-.32,1.64,0s.48.54.76.78a2.48,2.48,0,0,0,1.57.55c1.16.1,2.17.22,2.85,1.32a2.64,2.64,0,0,1-.28,3.13c-.42.38-.95,0-1.51.06a3.45,3.45,0,0,0-1.66.78c-1.25,1-1.91,2.65-3.59,3-.22,0-.1.48.18.42Z" transform="translate(-68.24 -91.95)"/><path d="M486.22,189.64a8,8,0,0,1,4-5.28c1.15-.58,2.81-1,3.86,0a2,2,0,0,1,.16,3c-.2.16.06.5.28.36,1.56-1,4.09-2.71,5.9-1.39,1.06.75,1.74,3,.2,3.58.08.12.14.26.22.38a8.3,8.3,0,0,1,3.79-2.51c1.26-.24,3,.36,3.25,1.78.56,2.91-4.13,3-5.9,2.91a74.63,74.63,0,0,1-18.9-3.51.23.23,0,0,0-.12.44,76,76,0,0,0,18.84,3.51c1.89.09,4.25.15,5.74-1.24a2.39,2.39,0,0,0-.56-3.93c-2.45-1.4-4.8.6-6.48,2.23-.15.16,0,.46.22.38,1.62-.66,1.44-2.69.48-3.87-1.83-2.27-5.1-.35-7,.86l.28.36a2.24,2.24,0,0,0,.54-2.69,3,3,0,0,0-3.19-1.64c-3.11.34-5.46,3.31-6.16,6.19,0,.23.42.35.5.07Z" transform="translate(-68.24 -91.95)"/><path d="M491.1,204.74c1.56-.84,3.27-2,5.09-2.19,1.57-.12,3.81,1.45,2.59,3.17l.42.18a3.09,3.09,0,0,1,3.55-1.7,4.72,4.72,0,0,1,3.05,3l.16-.28a38.81,38.81,0,0,1-16.63-1.31.23.23,0,0,0-.12.44,39,39,0,0,0,16.89,1.31.23.23,0,0,0,.16-.28,5,5,0,0,0-3.69-3.33,3.53,3.53,0,0,0-3.81,2.08c-.1.26.28.35.42.18.94-1.32,0-3.08-1.4-3.65-2.27-1-5,1-6.88,2a.22.22,0,1,0,.2.4Z" transform="translate(-68.24 -91.95)"/><path d="M397.73,132.36a5.18,5.18,0,0,1,4.08-.28,5.37,5.37,0,0,1,1.9,1.12c.2.18.7.57.72.83.06.58-.68.48-1,.26-1.18-.67-.38-2.11.32-2.83a10.33,10.33,0,0,1,2-1.53,12.51,12.51,0,0,1,4.61-1.58c.28,0,.16-.48-.12-.44a12.85,12.85,0,0,0-4.43,1.46,7.56,7.56,0,0,0-3.25,2.85,1.8,1.8,0,0,0,.5,2.39,1.31,1.31,0,0,0,1.93-.28.25.25,0,0,0,0-.24,5.79,5.79,0,0,0-7.53-2.15c-.26.16,0,.54.24.42Z" transform="translate(-68.24 -91.95)"/><path d="M362.73,209.92A26,26,0,0,0,364,199.79c0-.28-.46-.29-.46,0a58,58,0,0,1-.6,10.53.23.23,0,0,0,.42.18c2-3.15,4-6.28,6-9.43.16-.24-.24-.48-.4-.24-2,3.15-4,6.28-6,9.43l.42.18a55.82,55.82,0,0,0,.62-10.65h-.46a25.72,25.72,0,0,1-1.26,10,.24.24,0,0,0,.46.12Z" transform="translate(-68.24 -91.95)"/><path class="cls-2" d="M360.24,200.31a2.79,2.79,0,0,1,4.09-2.39c.68.44,1.13,1.2,1.87,1.5s1.88-.34,1.54-1.06a5.84,5.84,0,0,0,5.56,1.85c.94-1.57-1.16-3.25-2.93-3.71a20.45,20.45,0,0,0-9.65-.18c-1.1.24-2.33.72-2.69,1.8-.5,1.43,1.05,2.91,2.57,2.95a7.46,7.46,0,0,0,4.15-1.71" transform="translate(-68.24 -91.95)"/><path d="M360.46,200.31a2.56,2.56,0,0,1,2-2.43c1.46-.4,2.1.66,3.13,1.42a1.69,1.69,0,0,0,1.76.27,1,1,0,0,0,.66-1.27c-.12.08-.26.14-.38.22a6.11,6.11,0,0,0,3.05,1.85c.7.18,2.23.48,2.85,0s.18-1.73-.18-2.23a5.16,5.16,0,0,0-2.61-1.78,19.35,19.35,0,0,0-9.47-.35c-1.72.33-4.43,1.47-3.23,3.7,1.53,2.86,4.94,1.16,6.88-.14.24-.15,0-.55-.24-.39a7.78,7.78,0,0,1-3.71,1.67c-1.22.06-2.81-.82-2.75-2.21s1.83-1.92,3-2.16a20.56,20.56,0,0,1,4.23-.39c2.33,0,5.62.19,7.31,2.05.38.42,1.06,1.53.26,1.95a3.87,3.87,0,0,1-1.91,0,5.61,5.61,0,0,1-3.13-1.79.23.23,0,0,0-.38.22c.3,1-1.12.86-1.46.68a3.57,3.57,0,0,1-.75-.64,5,5,0,0,0-1.06-.86,2.66,2.66,0,0,0-1.84-.2,3,3,0,0,0-2.41,2.89c0,.26.44.26.44,0Z" transform="translate(-68.24 -91.95)"/><path d="M420.6,239.21q-.69,9.22-1.38,18.41c0,.22.32.3.42.12q2.66-4.91,4.85-10c.67-1.62,1.33-3.23,1.95-4.87.3-.81.6-1.61.88-2.43l.48-1.4c.1-.31.27-1.33.61-1.47s0-.5-.22-.4c-.49.22-.55.94-.69,1.4-.32.93-.64,1.87-1,2.81-.66,1.79-1.36,3.59-2.09,5.34a114.07,114.07,0,0,1-5.19,10.81l.42.12L421,239.23c0-.31-.42-.31-.44,0Z" transform="translate(-68.24 -91.95)"/><path d="M420.78,257.24l12.3-11.76c1-1,2-1.92,3-2.88.62-.59,2-1.43,2.13-2.35s-1.31-1.08-1.17-.18c0,.28.48.16.44-.12.16,1.06-1.48,2.1-2.16,2.75s-1.33,1.28-2,1.92l-4.29,4.11-8.57,8.19c-.24.2.08.52.3.32Z" transform="translate(-68.24 -91.95)"/><path class="cls-2" d="M433.84,240.53a4.15,4.15,0,0,0,7.2-4.07c-.22,1.46,2,2.36,3.13,1.44a3.21,3.21,0,0,0,.35-4.05c-1.77-2.93-6-3-9.29-2.19s-6.8,2.25-10,1.13c-2.51-.85-4.8-3.21-7.35-2.51a5.72,5.72,0,0,0-2.36,1.52,26.14,26.14,0,0,0-6.92,10.43c4.79,1.41,9-5.69,13.82-4.25,2.14.64,4.37,2.87,6.12,1.53.48-.36.84-1,1.44-1,.86-.1,1.33.89,1.83,1.59,1.66,2.33,6.08,1.34,6.58-1.49" transform="translate(-68.24 -91.95)"/><path d="M433.64,240.63a4.37,4.37,0,0,0,7.61-4.25c-.1-.24-.43-.22-.43.06a2,2,0,0,0,2.13,2,2.39,2.39,0,0,0,2.33-2.36c.34-3.35-3.19-5-6-5.16-4.25-.2-8.13,2.39-12.36,1.95-3.67-.38-7-4.78-10.69-2s-6.32,7.06-7.86,11.29a.21.21,0,0,0,.16.27c4.75,1.28,7.88-4.2,12.35-4.42,1.51-.08,2.77.76,4.08,1.41a3.92,3.92,0,0,0,3.17.56,4.05,4.05,0,0,0,1.14-.88,1.21,1.21,0,0,1,1.74.18c.24.3.41.64.65,1a3.43,3.43,0,0,0,2.24,1.28,4.08,4.08,0,0,0,4.68-2.91c.06-.28-.38-.42-.44-.12-.47,2.27-3.49,3.33-5.42,2.13-.92-.58-1.18-1.89-2.17-2.31s-1.5.52-2.18,1c-1.35,1-3-.2-4.24-.83a6.57,6.57,0,0,0-3-.92c-2,0-3.77,1.14-5.41,2.15-2.09,1.32-4.44,3-7.06,2.32l.16.28a26.38,26.38,0,0,1,5.57-9.06c1.17-1.25,2.61-2.85,4.48-2.85,1.7,0,3.19,1.1,4.61,1.86,3,1.57,5.9,1.23,9.07.37,2.95-.79,6.1-1.81,9.13-.75a4.39,4.39,0,0,1,3.19,3.85,2.09,2.09,0,0,1-1.67,2.31,1.64,1.64,0,0,1-1.9-1.58l-.43.06a4.12,4.12,0,0,1-1.52,5,4.07,4.07,0,0,1-5.26-1.12c-.18-.24-.58,0-.4.22Z" transform="translate(-68.24 -91.95)"/><path d="M489.53,239.17a218.05,218.05,0,0,1,23.91,5.43v-.44c-6.43,1.3-12.87,2.59-19.37,3.41-3.15.4-6.32.68-9.51.8-1.55.06-3.11.08-4.66,0-1.3,0-3.11-.08-3.71-1.48l-.16.28a18.06,18.06,0,0,1,6.22-.14c1.38.22,2.89.9,4.13-.08a3.81,3.81,0,0,0,1.23-3.17,39.8,39.8,0,0,0-.81-5.1c-1.22-7.74-1.32-15.6-1.46-23.41l-.44.06q1.32,7.86,2.63,15.73c.42,2.55.84,5.1,1.44,7.6.12.45.26,1.07.82,1.11a.57.57,0,0,0,.62-.74c-.06-.27-.5-.15-.44.12-.32,0-.5-.16-.52-.43l-.18-.76c-.12-.5-.22-1-.32-1.52-.2-1-.4-2-.58-3l-1-6c-.67-4.07-1.37-8.16-2.05-12.22,0-.26-.46-.2-.44.06A191.59,191.59,0,0,0,486,236.44c.22,1.64.46,3.25.76,4.85s.91,4-.66,5.28c-.92.74-2,.36-3,.16a17.68,17.68,0,0,0-2.3-.32,18.48,18.48,0,0,0-4.92.32.23.23,0,0,0-.16.28c.92,2.23,4.17,1.84,6.1,1.84a95.58,95.58,0,0,0,10.69-.68c7.08-.8,14.06-2.22,21-3.61.21,0,.19-.38,0-.44a218,218,0,0,0-23.91-5.42c-.26,0-.38.43-.1.47Z" transform="translate(-68.24 -91.95)"/><path d="M422.27,241.51a497,497,0,0,1,75.29,8.33c12.19,2.32,24.29,5.11,36.67,6.14,6.3.54,12.64.78,18.94,1.32a131.34,131.34,0,0,1,18.21,2.83c12.82,3,25.06,7.84,37.25,12.74.32.14.47-.4.14-.52-10.93-4.4-21.92-8.77-33.32-11.78a127.12,127.12,0,0,0-17.29-3.33c-6.28-.74-12.6-1-18.9-1.46a184.19,184.19,0,0,1-19.18-2.17c-6.11-1-12.15-2.31-18.21-3.51q-18.45-3.65-37.15-5.9-21.14-2.55-42.45-3.27a.29.29,0,0,0,0,.58Z" transform="translate(-68.24 -91.95)"/><path d="M393.18,252.43a191.22,191.22,0,0,1,23.93,1,74.08,74.08,0,0,1,11.52,2.29c3.57,1,7,2.44,10.55,3.71a59.54,59.54,0,0,0,11,3.13,91.63,91.63,0,0,0,11.7.92c4,.12,7.92.26,11.85.76a95.15,95.15,0,0,1,11.82,2.27,232.58,232.58,0,0,1,24.41,8.1c.31.12.47-.4.14-.52-7.18-2.69-14.36-5.37-21.76-7.4A101.62,101.62,0,0,0,465.32,263c-4-.16-8.07-.18-12.08-.6a51.9,51.9,0,0,1-11.59-2.69c-3.57-1.21-7.06-2.67-10.64-3.85a68.82,68.82,0,0,0-11.27-2.63c-8.77-1.33-17.69-1.31-26.54-1.31a.25.25,0,1,0,0,.49Z" transform="translate(-68.24 -91.95)"/><path d="M345.41,274.23c5-.74,8.77-4.11,13.16-6.34a15.42,15.42,0,0,1,8.09-1.82,26.17,26.17,0,0,1,9.55,3c2.55,1.24,6.72,2.82,7.34,5.95a3,3,0,0,1,.2-.34A83.73,83.73,0,0,1,363,277.44a38.1,38.1,0,0,1-9.89-.82c-2.43-.64-7.1-2.89-5.36-6.18a.28.28,0,0,0-.48-.28c-1.3,2.45.78,4.81,2.87,5.92,3.07,1.62,6.8,1.78,10.19,1.86a84.27,84.27,0,0,0,23.51-2.77.29.29,0,0,0,.2-.34c-.5-2.58-3.25-4.05-5.37-5.17a39.75,39.75,0,0,0-9.17-3.75,15.66,15.66,0,0,0-8.79.4,36.41,36.41,0,0,0-6.9,3.71,22.58,22.58,0,0,1-8.59,3.65c-.34.08-.18.62.16.56Z" transform="translate(-68.24 -91.95)"/><path d="M357.27,268.29c.76-1.1.12-2.28-.84-3-1.53-1.14-3.67-1.16-5.5-1.06-4.81.26-9.65.76-14.44,1.23a10.16,10.16,0,0,0-5.36,1.68,5.87,5.87,0,0,0-2,3.43c-.24,1.12-.68,3.19.08,4.19a3.36,3.36,0,0,0,1.77,1,30.64,30.64,0,0,0,3.29.88,32.5,32.5,0,0,0,14-.24.27.27,0,0,0-.14-.52,32.2,32.2,0,0,1-10.35.72,28.79,28.79,0,0,1-5.38-1,6.94,6.94,0,0,1-2.42-.87c-.76-.64-.6-1.6-.54-2.5a7.1,7.1,0,0,1,1.14-3.76,6.58,6.58,0,0,1,4.43-2.28c3.79-.64,7.71-.74,11.54-1.07a46.68,46.68,0,0,1,6-.38,6.78,6.78,0,0,1,3.23.77c.86.52,1.7,1.48,1,2.48-.22.3.26.58.46.28Z" transform="translate(-68.24 -91.95)"/><path d="M348.48,137.48c-7.26-.36-12.8,5-16.63,10.55a13.46,13.46,0,0,1-4,4.23c-1.84,1.06-4,1.33-6,2a31,31,0,0,0-9.59,5.11,88.87,88.87,0,0,0-9.37,8.61c-.2.22.11.54.31.32,5.21-5.3,10.75-10.93,18-13.36,1.75-.6,3.59-.88,5.3-1.51a9.68,9.68,0,0,0,4-2.8c1.12-1.29,2-2.75,3-4.12a26.74,26.74,0,0,1,3.77-4.11,16,16,0,0,1,11.21-4.41.23.23,0,1,0,0-.46Z" transform="translate(-68.24 -91.95)"/><path d="M369.57,128.85c-6,2.27-7.26,9.21-8.95,14.6a17.78,17.78,0,0,1-5.54,8.83c-2.56,2.11-5.55,3.65-8,5.9s-4.45,5.36-4.05,8.83c0,.28.48.3.46,0-.8-7,6.84-10.44,11.39-14a16.68,16.68,0,0,0,5.26-6.94c1.2-2.93,1.78-6,2.89-9,1.24-3.23,3.25-6.48,6.62-7.75.26-.12.14-.56-.12-.46Z" transform="translate(-68.24 -91.95)"/><path d="M375.2,141.07c2,2.14,1.07,5.33-.16,7.58s-2.88,4.37-3.23,7c-.7,5.14,2.63,10.25.77,15.29-.1.28.34.4.44.12,2-5.46-2-11-.54-16.51.76-2.79,2.91-4.94,3.85-7.66.72-2.07.76-4.48-.82-6.18-.18-.2-.51.12-.31.34Z" transform="translate(-68.24 -91.95)"/><path d="M391.37,137.26a16.35,16.35,0,0,0,.38,10.91,15.37,15.37,0,0,0,1.11,2.27,14.61,14.61,0,0,1,1.68,3c.59,1.91,0,3.94.71,5.84.1.26.54.16.44-.12-.67-1.74-.22-3.59-.58-5.37s-1.77-3.21-2.53-4.86a16.17,16.17,0,0,1-.76-11.53.23.23,0,0,0-.45-.12Z" transform="translate(-68.24 -91.95)"/><path d="M406.88,144.82c-.22,2.11-.6,4.27-.68,6.38a2.3,2.3,0,0,0,2.15,2.63,18.17,18.17,0,0,1,5.29,1.5,14.58,14.58,0,0,1,4.52,3.51c.2.22.52-.1.32-.32a15.19,15.19,0,0,0-7.93-4.79c-.74-.16-1.48-.22-2.22-.35-1.37-.26-1.75-1.18-1.67-2.5.14-2,.44-4,.66-6.08,0-.28-.42-.28-.44,0Z" transform="translate(-68.24 -91.95)"/><path class="cls-2" d="M399.28,223.74a2.07,2.07,0,0,1,.7-1.57,3.18,3.18,0,0,1,4.07-.52c1.17.91,1,3.17-.42,3.65a2.46,2.46,0,0,1,3.55-.74,2.5,2.5,0,0,1,.14,3.63c.88-1.32,3.07-2.26,3.87-.88a1.9,1.9,0,0,1-.84,2.39,4.89,4.89,0,0,1-2.73.48,77.13,77.13,0,0,1-12.55-1.71,12,12,0,0,1,1-6.24,3.2,3.2,0,0,1,1.26-1.58,1.27,1.27,0,0,1,1.75.48" transform="translate(-68.24 -91.95)"/><path d="M399.52,223.74c0-1.81,2.47-2.89,4-2.15,1.3.64,1.55,2.87.06,3.47.08.12.18.22.26.34a2.14,2.14,0,1,1,3.33,2.59l.36.28c.58-.78,1.75-1.7,2.79-1.4a1.27,1.27,0,0,1,.56,2,2.48,2.48,0,0,1-1.76,1,15.56,15.56,0,0,1-3.61,0c-1.37-.1-2.77-.28-4.12-.48-1.2-.18-2.42-.39-3.61-.61a15.16,15.16,0,0,1-1.9-.36c-.36-.12-.5-.06-.64-.46a3.29,3.29,0,0,1,0-.88,11.55,11.55,0,0,1,.66-3.77,8.09,8.09,0,0,1,.72-1.59c.46-.72,1.66-1.54,2.29-.44.14.26.54,0,.4-.24-.84-1.44-2.51-.52-3.15.56a11.46,11.46,0,0,0-1.27,6.88c0,.1.06.2.16.22,2.73.53,5.44,1,8.21,1.39a40.52,40.52,0,0,0,4.41.34,5.18,5.18,0,0,0,2.85-.52c1.07-.68,1.69-2.45.4-3.25s-3,.4-3.73,1.44c-.16.22.18.46.36.28a2.73,2.73,0,0,0-.16-4,2.7,2.7,0,0,0-3.89.82c-.1.16.06.42.26.34a2.41,2.41,0,0,0,.36-4.13c-1.8-1.24-4.95.08-5,2.37,0,.26.42.26.44,0Z" transform="translate(-68.24 -91.95)"/><path d="M404,234.61a6.42,6.42,0,0,1,2.53-2.35c.16-.08.64-.38.78-.34.3.1.36.63.4.89a3.92,3.92,0,0,1-.22,2c-.08.2.24.4.38.22a2.72,2.72,0,0,1,1.59-1.22,1,1,0,0,1,1.22.52c.08.16.2.58.08.76-.6.77-3,0-3.85-.12a22.05,22.05,0,0,0-7.16.06c-.28.06-.16.5.12.44a20.67,20.67,0,0,1,6.66-.08c1.16.14,2.31.43,3.49.53a1,1,0,0,0,1-.31,1.54,1.54,0,0,0-.28-2c-1.08-.88-2.52.26-3.19,1.1.12.08.26.14.38.22a4.28,4.28,0,0,0-.18-3.47.22.22,0,0,0-.26-.1,7.13,7.13,0,0,0-3.87,3c-.16.24.24.46.4.22Z" transform="translate(-68.24 -91.95)"/><path class="cls-7" d="M364,266.31c-.9.68.7,1.62,2,1.74s3.11.32,3.15,1.23a1.47,1.47,0,0,1-.47.92c-1.74,2-3.45,4-5.19,6-.52.6-1.06,1.3-.72,2a2.71,2.71,0,0,0,2.48.93,9,9,0,0,0,2.79-.77c2.89-1.18,5.78-2.36,8.65-3.51,1.54-.62,3.31-1.7,2.63-2.84a3.35,3.35,0,0,0-1.67-1.07c-4.13-1.52-9-1.76-13.64-2-.4-.67-.8-1.37-1.18-2.05" transform="translate(-68.24 -91.95)"/><path class="cls-7" d="M347.62,283.6c-.22-.1,0-.46.26-.36s.26.38.24.62a16.59,16.59,0,0,1-.52,2.19,1.85,1.85,0,0,0,.68,2c1,.57,2.15-.56,2.73-1.58a35.4,35.4,0,0,0,2.37-4.88A4.43,4.43,0,0,0,348,283" transform="translate(-68.24 -91.95)"/></svg>